<mxfile host="app.diagrams.net" modified="2024-02-24T09:04:57.230Z" agent="Mozilla/5.0 (Windows NT 10.0; Win64; x64) AppleWebKit/537.36 (KHTML, like Gecko) Chrome/121.0.0.0 Safari/537.36 Edg/121.0.0.0" etag="ZSd6Ro9SxEW7OzpdbjrW" version="23.1.6" type="device">
  <diagram name="Page-1" id="9zbH0cF-_lzCxYYPnGsm">
    <mxGraphModel dx="746" dy="506" grid="1" gridSize="10" guides="1" tooltips="1" connect="1" arrows="1" fold="1" page="1" pageScale="1" pageWidth="827" pageHeight="1169" math="0" shadow="0">
      <root>
        <mxCell id="0" />
        <mxCell id="1" parent="0" />
        <mxCell id="Z_HGKR70PhSEz0dFQlHK-3" value="SERVER" style="rounded=1;whiteSpace=wrap;html=1;fillColor=#dae8fc;strokeColor=#6c8ebf;" vertex="1" parent="1">
          <mxGeometry x="470" y="60" width="120" height="50" as="geometry" />
        </mxCell>
        <mxCell id="Z_HGKR70PhSEz0dFQlHK-7" style="edgeStyle=orthogonalEdgeStyle;rounded=0;orthogonalLoop=1;jettySize=auto;html=1;exitX=0.5;exitY=1;exitDx=0;exitDy=0;entryX=0;entryY=0.5;entryDx=0;entryDy=0;" edge="1" parent="1" source="Z_HGKR70PhSEz0dFQlHK-4" target="Z_HGKR70PhSEz0dFQlHK-6">
          <mxGeometry relative="1" as="geometry">
            <mxPoint x="380" y="420" as="targetPoint" />
          </mxGeometry>
        </mxCell>
        <mxCell id="Z_HGKR70PhSEz0dFQlHK-4" value="Client&amp;nbsp;" style="rounded=1;whiteSpace=wrap;html=1;fillColor=#dae8fc;strokeColor=#6c8ebf;" vertex="1" parent="1">
          <mxGeometry x="350" y="210" width="120" height="60" as="geometry" />
        </mxCell>
        <mxCell id="Z_HGKR70PhSEz0dFQlHK-11" value="" style="edgeStyle=orthogonalEdgeStyle;rounded=0;orthogonalLoop=1;jettySize=auto;html=1;entryX=1;entryY=0.5;entryDx=0;entryDy=0;" edge="1" parent="1" source="Z_HGKR70PhSEz0dFQlHK-5" target="Z_HGKR70PhSEz0dFQlHK-6">
          <mxGeometry relative="1" as="geometry">
            <mxPoint x="670" y="350" as="targetPoint" />
          </mxGeometry>
        </mxCell>
        <mxCell id="Z_HGKR70PhSEz0dFQlHK-5" value="Client" style="rounded=1;whiteSpace=wrap;html=1;fillColor=#dae8fc;strokeColor=#6c8ebf;" vertex="1" parent="1">
          <mxGeometry x="570" y="210" width="120" height="60" as="geometry" />
        </mxCell>
        <mxCell id="Z_HGKR70PhSEz0dFQlHK-6" value="Connects" style="ellipse;whiteSpace=wrap;html=1;fillColor=#e1d5e7;strokeColor=#9673a6;" vertex="1" parent="1">
          <mxGeometry x="470" y="420" width="120" height="60" as="geometry" />
        </mxCell>
        <mxCell id="Z_HGKR70PhSEz0dFQlHK-12" value="encryption using (el_gamal) and rsa key exchange&amp;nbsp;" style="rounded=0;whiteSpace=wrap;html=1;fillColor=#d5e8d4;strokeColor=#82b366;" vertex="1" parent="1">
          <mxGeometry x="470" y="330" width="120" height="60" as="geometry" />
        </mxCell>
        <mxCell id="Z_HGKR70PhSEz0dFQlHK-14" value="" style="edgeStyle=orthogonalEdgeStyle;rounded=0;orthogonalLoop=1;jettySize=auto;html=1;" edge="1" parent="1" source="Z_HGKR70PhSEz0dFQlHK-13" target="Z_HGKR70PhSEz0dFQlHK-3">
          <mxGeometry relative="1" as="geometry" />
        </mxCell>
        <mxCell id="Z_HGKR70PhSEz0dFQlHK-13" value="Elgamal public key gets created&amp;nbsp;" style="ellipse;whiteSpace=wrap;html=1;fillColor=#d5e8d4;strokeColor=#82b366;" vertex="1" parent="1">
          <mxGeometry x="250" y="60" width="120" height="65" as="geometry" />
        </mxCell>
        <mxCell id="Z_HGKR70PhSEz0dFQlHK-15" value="" style="endArrow=none;html=1;rounded=0;exitX=0.928;exitY=-0.017;exitDx=0;exitDy=0;exitPerimeter=0;entryX=0.25;entryY=1;entryDx=0;entryDy=0;" edge="1" parent="1" source="Z_HGKR70PhSEz0dFQlHK-4" target="Z_HGKR70PhSEz0dFQlHK-3">
          <mxGeometry width="50" height="50" relative="1" as="geometry">
            <mxPoint x="480" y="180" as="sourcePoint" />
            <mxPoint x="530" y="130" as="targetPoint" />
          </mxGeometry>
        </mxCell>
        <mxCell id="Z_HGKR70PhSEz0dFQlHK-16" value="" style="endArrow=none;html=1;rounded=0;exitX=0.317;exitY=0.017;exitDx=0;exitDy=0;exitPerimeter=0;entryX=0.628;entryY=1.033;entryDx=0;entryDy=0;entryPerimeter=0;" edge="1" parent="1" source="Z_HGKR70PhSEz0dFQlHK-5" target="Z_HGKR70PhSEz0dFQlHK-3">
          <mxGeometry width="50" height="50" relative="1" as="geometry">
            <mxPoint x="500" y="170" as="sourcePoint" />
            <mxPoint x="570" y="110" as="targetPoint" />
          </mxGeometry>
        </mxCell>
        <mxCell id="Z_HGKR70PhSEz0dFQlHK-17" value="Accepts connection" style="ellipse;whiteSpace=wrap;html=1;fillColor=#d5e8d4;strokeColor=#82b366;" vertex="1" parent="1">
          <mxGeometry x="480" y="110" width="80" height="40" as="geometry" />
        </mxCell>
      </root>
    </mxGraphModel>
  </diagram>
</mxfile>
